<svg width="26" height="26" viewBox="0 0 26 26" fill="none" xmlns="http://www.w3.org/2000/svg">
<g clip-path="url(#clip0_237_22017)">
<rect width="26" height="26" rx="5" fill="#353F9A"/>
<path d="M17.6266 23.5255C15.0752 23.5255 12.9995 21.6261 12.9995 19.2915C12.9995 18.3458 13.6984 16.3334 15.136 13.1395C16.1774 10.826 17.2328 8.7425 17.2434 8.72175C17.3166 8.57741 17.4647 8.48645 17.6266 8.48645C17.7884 8.48645 17.9365 8.57741 18.0098 8.72175C18.0203 8.7425 19.0757 10.826 20.117 13.1395C21.5547 16.3334 22.2536 18.3458 22.2536 19.2915C22.2536 21.6261 20.1779 23.5255 17.6266 23.5255ZM17.6266 9.87692C16.3026 12.5577 13.8589 17.8114 13.8589 19.2915C13.8589 21.1523 15.5491 22.6661 17.6266 22.6661C19.7041 22.6661 21.3942 21.1523 21.3942 19.2915C21.3942 17.8114 18.9506 12.5577 17.6266 9.87692Z" fill="white"/>
<path d="M7.64404 17.9395C5.51168 17.9395 3.77686 16.4539 3.77686 14.6278C3.77686 12.9738 6.91001 7.21256 7.26729 6.56111C7.34275 6.42352 7.48716 6.33801 7.64404 6.33801C7.80092 6.33801 7.94534 6.42352 8.02079 6.56111C8.37804 7.2126 11.5112 12.9738 11.5112 14.6278C11.5112 16.4539 9.77641 17.9395 7.64404 17.9395ZM7.64409 7.6709C6.31639 10.1582 4.63627 13.6377 4.63627 14.6278C4.63627 15.9801 5.98558 17.0802 7.64409 17.0802C9.30259 17.0802 10.6519 15.98 10.6519 14.6278C10.6519 13.6374 8.97173 10.1581 7.64409 7.6709Z" fill="white"/>
<path d="M13.1611 8.91614C11.9385 8.91614 10.9438 8.05109 10.9438 6.98779C10.9438 6.09524 12.477 3.25432 12.7843 2.69388C12.8597 2.55633 13.0042 2.47083 13.1611 2.47083C13.318 2.47083 13.4624 2.55633 13.5379 2.69392C13.8452 3.25432 15.3783 6.09524 15.3783 6.98779C15.3783 8.05105 14.3836 8.91614 13.1611 8.91614ZM13.1607 3.81209C12.4437 5.18572 11.8032 6.60519 11.8032 6.98774C11.8032 7.57719 12.4123 8.05672 13.1611 8.05672C13.9098 8.05672 14.5189 7.57719 14.5189 6.98774C14.5189 6.57486 13.813 5.06412 13.1607 3.81209Z" fill="white"/>
<path d="M18.8159 20.9473C17.8682 20.9473 17.0972 20.1763 17.0972 19.2286C17.0972 18.2809 17.8682 17.5098 18.8159 17.5098C19.7636 17.5098 20.5347 18.2809 20.5347 19.2286C20.5347 20.1763 19.7636 20.9473 18.8159 20.9473ZM18.8159 18.3692C18.3421 18.3692 17.9565 18.7547 17.9565 19.2286C17.9565 19.7024 18.3421 20.088 18.8159 20.088C19.2898 20.088 19.6753 19.7024 19.6753 19.2286C19.6753 18.7547 19.2898 18.3692 18.8159 18.3692Z" fill="white"/>
<path d="M8.93311 15.7911C8.22232 15.7911 7.64404 15.2128 7.64404 14.502C7.64404 13.7912 8.22232 13.213 8.93311 13.213C9.64389 13.213 10.2222 13.7912 10.2222 14.502C10.2222 15.2128 9.64389 15.7911 8.93311 15.7911ZM8.93311 14.0723C8.69618 14.0723 8.50342 14.2651 8.50342 14.502C8.50342 14.7389 8.69618 14.9317 8.93311 14.9317C9.17004 14.9317 9.36279 14.7389 9.36279 14.502C9.36279 14.2651 9.17004 14.0723 8.93311 14.0723Z" fill="white"/>
<path d="M13.6597 7.19751C13.5467 7.19751 13.4358 7.15153 13.3559 7.07161C13.2756 6.99169 13.23 6.88083 13.23 6.76782C13.23 6.65481 13.2756 6.54396 13.3559 6.46403C13.4358 6.38368 13.5463 6.33813 13.6597 6.33813C13.7727 6.33813 13.8835 6.38368 13.9635 6.46403C14.0434 6.54396 14.0894 6.65438 14.0894 6.76782C14.0894 6.88083 14.0434 6.99169 13.9635 7.07161C13.8835 7.15153 13.7726 7.19751 13.6597 7.19751Z" fill="white"/>
</g>
<defs>
<clipPath id="clip0_237_22017">
<rect width="26" height="26" fill="white"/>
</clipPath>
</defs>
</svg>
